HIERARCHY
ROOT Hips
{
	OFFSET 0.000000 0.000000 0.000000 
	CHANNELS 6 Xposition Yposition Zposition Zrotation Yrotation Xrotation
	JOINT LeftUpLeg
	{
		OFFSET 1.363060 -1.794630 0.839290 
		CHANNELS 3 Zrotation Yrotation Xrotation
		JOINT LeftLeg
		{
			OFFSET 2.448110 -6.726130 0.000000 
			CHANNELS 3 Zrotation Yrotation Xrotation
			JOINT LeftFoot
			{
				OFFSET 2.562200 -7.039590 0.000000 
				CHANNELS 3 Zrotation Yrotation Xrotation
				JOINT LeftToeBase
				{
					OFFSET 0.157640 -0.433110 2.322550 
					CHANNELS 3 Zrotation Yrotation Xrotation
					End Site
					{
						OFFSET 0.000000 0.000000 0.000000 
					}
				}
			}
		}
	}
	JOINT RightUpLeg
	{
		OFFSET -1.305520 -1.794630 0.839290 
		CHANNELS 3 Zrotation Yrotation Xrotation
		JOINT RightLeg
		{
			OFFSET -2.542530 -6.985550 0.000000 
			CHANNELS 3 Zrotation Yrotation Xrotation
			JOINT RightFoot
			{
				OFFSET -2.568260 -7.056230 0.000000 
				CHANNELS 3 Zrotation Yrotation Xrotation
				JOINT RightToeBase
				{
					OFFSET -0.164730 -0.452590 2.363150 
					CHANNELS 3 Zrotation Yrotation Xrotation
					End Site
					{
						OFFSET 0.000000 0.000000 0.000000 
					}
				}
			}
		}
	}
	JOINT Spine
	{
		OFFSET 0.028270 2.035590 -0.193380 
		CHANNELS 3 Zrotation Yrotation Xrotation
		JOINT Spine1
		{
			OFFSET 0.056720 2.048850 -0.042750 
			CHANNELS 3 Zrotation Yrotation Xrotation
			JOINT Neck1
			{
				OFFSET -0.054170 1.746240 0.172020 
				CHANNELS 3 Zrotation Yrotation Xrotation
				JOINT Head
				{
					OFFSET 0.104070 1.761360 -0.123970 
					CHANNELS 3 Zrotation Yrotation Xrotation
					End Site
					{
						OFFSET 0.000000 0.000000 0.000000 
					}
				}
			}
			JOINT LeftArm
			{
				OFFSET 3.362410 1.200890 -0.311210 
				CHANNELS 3 Zrotation Yrotation Xrotation
				JOINT LeftForeArm
				{
					OFFSET 4.983000 -0.000000 -0.000000 
					CHANNELS 3 Zrotation Yrotation Xrotation
					JOINT LeftHand
					{
						OFFSET 3.483560 -0.000000 -0.000000 
						CHANNELS 3 Zrotation Yrotation Xrotation
						JOINT LeftHandIndex1
						{
							OFFSET 0.715260 -0.000000 -0.000000 
							CHANNELS 3 Zrotation Yrotation Xrotation
							End Site
							{
								OFFSET 0.000000 0.000000 0.000000 
							}
						}
					}
				}
			}
			JOINT RightArm
			{
				OFFSET -3.136600 1.374050 -0.404650 
				CHANNELS 3 Zrotation Yrotation Xrotation
				JOINT RightForeArm
				{
					OFFSET -5.241900 -0.000000 -0.000000 
					CHANNELS 3 Zrotation Yrotation Xrotation
					JOINT RightHand
					{
						OFFSET -3.444170 -0.000000 -0.000000 
						CHANNELS 3 Zrotation Yrotation Xrotation
						JOINT RightHandIndex1
						{
							OFFSET -0.622530 -0.000000 -0.000000 
							CHANNELS 3 Zrotation Yrotation Xrotation
							End Site
							{
								OFFSET 0.000000 0.000000 0.000000 
							}
						}
					}
				}
			}
		}
	}
}
MOTION
Frames: 6
Frame Time: 0.041667
-35.425306 17.485121 7.802771 -10.699042 74.406096 -6.527484 9.803223 8.584804 2.846784 7.041709 14.600298 48.979167 -0.735716 11.965253 9.189332 0.204800 2.913600 8.038400 10.310118 -2.736774 -31.462702 -6.935044 -16.036899 48.171515 -0.363660 -2.574645 -11.036884 -0.250300 -3.219200 8.889500 -3.358719 -7.533060 1.345974 -4.553720 -3.035088 2.323153 4.529474 16.152798 4.104221 0.693400 7.741700 7.960700 -78.824142 -33.394694 67.077173 71.629455 -58.558552 -45.139728 -0.687256 0.867420 7.160293 -7.125000 0.000000 0.000000 31.032266 -14.991942 -42.800402 -30.371115 40.722876 -10.227435 0.555240 -2.091196 -42.120872 7.125000 0.000000 0.000000 
-35.337193 17.380875 8.017183 -8.927556 73.837712 -5.868482 8.947737 8.774978 3.851245 8.239671 15.522955 53.684048 0.006795 6.530083 11.884572 0.431600 -4.216000 -11.685200 11.294181 -4.239533 -30.106449 -6.738286 -15.858803 47.292056 -0.352442 -2.824582 -10.459381 -0.270400 -3.344800 9.240300 -3.552821 -7.320419 1.515369 -4.462719 -2.932381 2.545028 4.564228 16.361279 4.110616 0.752700 7.841900 7.912800 -78.366047 -32.580787 64.467215 74.007286 -58.906168 -47.231562 -0.753727 0.871827 5.708617 -7.125000 0.000000 0.000000 27.157433 -12.689939 -44.156137 -30.864715 41.390711 -10.485994 0.494138 -2.076157 -41.249056 7.125000 0.000000 0.000000 
-35.246527 17.263970 8.230574 -7.087079 73.305129 -5.213230 8.064351 9.102878 4.798338 9.491208 16.339492 58.390482 0.297957 1.749302 11.808297 1.008200 -6.389100 -17.917500 12.123363 -5.703740 -28.417439 -6.478846 -15.617560 46.149273 -0.348052 -3.054172 -10.041558 -0.509800 -4.576600 12.704800 -3.648514 -6.925487 1.381097 -4.098054 -2.710287 1.689990 4.686367 16.146182 4.498231 0.879200 7.733100 8.084700 -78.858567 -31.037404 62.829522 76.247782 -59.137356 -49.168928 -0.803476 0.878466 4.641544 -7.125000 0.000000 0.000000 23.048618 -11.849574 -44.588645 -31.549803 42.107360 -10.827136 0.476208 -2.061421 -41.263041 7.125000 0.000000 0.000000 
-35.154738 17.135629 8.447641 -6.980382 72.687143 -6.216797 7.812080 9.480563 5.783071 10.817297 17.016472 63.022344 0.480923 -1.136080 12.935866 1.047400 -6.508100 -18.266000 13.648953 -6.993714 -26.326263 -6.176692 -15.386821 44.811292 -0.350599 -3.085387 -10.176656 -0.555300 -4.773400 13.263400 -3.829709 -6.513402 1.476081 -4.346923 -2.464110 1.591445 4.665605 16.087558 4.624105 0.826200 7.722700 8.113400 -78.337837 -30.056267 60.556256 77.911014 -59.316363 -50.651473 -0.863593 0.865166 3.472992 -7.125000 0.000000 0.000000 19.363137 -10.366529 -45.125586 -32.088569 42.775550 -11.124063 0.449634 -2.051050 -41.202420 7.125000 0.000000 0.000000 
-35.065502 16.997996 8.666954 -7.597692 72.079178 -7.946702 7.868673 9.963544 6.681894 12.173222 17.554990 67.562963 0.576380 -3.792213 13.858267 1.496700 -7.728000 -21.890900 15.376090 -8.166064 -23.976354 -5.892377 -15.237479 43.652727 -0.450880 -3.173510 -13.545938 -0.369500 -3.904300 10.807500 -4.011768 -6.128726 1.495296 -4.787153 -2.199190 1.140370 4.665286 16.042623 4.721613 0.735100 7.739300 8.107600 -78.244024 -28.674378 58.197815 79.837962 -59.487124 -52.361747 -0.900813 0.855827 3.009787 -7.125000 0.000000 0.000000 15.762179 -8.773673 -45.231106 -32.557992 43.369043 -11.394082 0.414276 -2.061996 -40.895848 7.125000 0.000000 0.000000 
-34.986884 16.861691 8.886982 -7.936332 71.510830 -9.637772 7.886049 10.399738 7.721271 13.577370 17.992761 72.153442 0.647245 -5.891722 15.243252 0.800800 -5.711400 -15.949300 16.844008 -8.967606 -21.139157 -5.651334 -15.169867 42.781433 -0.635986 -3.072364 -17.342122 0.000000 0.005000 -0.013800 -4.180692 -5.674851 1.508025 -5.127846 -1.897293 0.525345 4.620986 15.904739 4.738489 0.608500 7.708400 8.047400 -77.848688 -27.332427 55.992107 81.875712 -59.640717 -54.168091 -0.936400 0.830509 2.213424 -7.125000 0.000000 0.000000 12.058713 -7.022740 -45.236880 -32.794976 43.772638 -11.520234 0.367904 -2.091349 -40.275900 7.125000 0.000000 0.000000 
